<!-- fill 色指定 -->
<?xml version="1.0" standalone="no"?>
<!DOCTYPE svg PUBLIC "-//W3C//DTD SVG 20010904//EN"
 "http://www.w3.org/TR/2001/REC-SVG-20010904/DTD/svg10.dtd">
<svg version="1.0" xmlns="http://www.w3.org/2000/svg"
 width="551.000000pt" height="200.000000pt" viewBox="0 0 551.000000 200.000000"
 preserveAspectRatio="xMidYMid meet" style="">
<g transform="translate(0.000000,200.000000) scale(0.100000,-0.100000)"
fill="FF0033" stroke="none">
<path d="M0 1000 l0 -1000 2755 0 2755 0 0 1000 0 1000 -2755 0 -2755 0 0
-1000z m1485 480 l480 -480 -483 -483 -482 -482 -482 482 -483 483 480 480
c264 264 482 480 485 480 3 0 221 -216 485 -480z m661 25 c19 -14 19 -14 -3
-15 -30 0 -54 10 -47 21 8 13 28 11 50 -6z m1919 6 c3 -5 1 -12 -5 -16 -22
-14 -8 -23 22 -14 42 12 68 12 68 -1 0 -5 -11 -12 -26 -16 -16 -4 -24 -12 -22
-23 3 -13 13 -15 51 -13 37 3 47 0 47 -12 0 -11 -13 -16 -47 -18 -47 -3 -48
-4 -51 -38 -4 -58 -12 -80 -27 -80 -12 0 -15 13 -15 56 0 47 -3 55 -16 50 -39
-15 -64 -18 -64 -7 0 6 -7 11 -15 11 -14 0 -21 -18 -27 -70 -2 -15 -10 -26
-22 -28 -16 -4 -18 0 -12 32 l7 36 -30 -18 c-39 -22 -53 -7 -19 21 14 12 31
32 38 45 11 22 10 23 -10 12 -15 -8 -26 -8 -32 -2 -7 7 2 14 27 23 33 12 36
17 31 41 -5 23 -2 28 14 28 13 0 20 -7 20 -20 0 -11 6 -20 14 -20 8 0 20 -2
28 -5 7 -3 20 8 30 25 17 30 32 38 43 21z m589 -7 c9 -3 16 -10 16 -15 0 -15
-47 -10 -60 6 -10 12 -9 15 8 15 11 0 27 -3 36 -6z m113 -2 c6 -4 19 -26 28
-50 10 -25 37 -59 64 -82 38 -33 42 -40 24 -40 -12 0 -41 15 -65 33 l-43 33
-24 -29 c-13 -16 -33 -32 -45 -37 -36 -13 71 -30 137 -21 55 7 91 1 69 -13
-27 -17 -132 -17 -209 -2 -48 10 -97 14 -117 10 -48 -9 -47 11 2 26 49 16 59
26 33 35 -24 7 -27 25 -8 44 10 10 7 10 -16 0 -33 -15 -50 -3 -23 17 26 18 85
29 97 17 6 -6 2 -19 -11 -36 -12 -15 -17 -27 -11 -27 5 0 17 -7 26 -16 15 -15
18 -15 40 6 14 13 29 38 36 57 9 28 8 37 -5 52 -21 24 -6 41 21 23z m371 -20
c2 -13 11 -22 21 -22 27 0 71 -38 71 -62 0 -26 -56 -78 -83 -78 -19 0 -18 3
11 29 41 38 41 65 2 81 -17 7 -32 11 -34 9 -29 -39 -46 -71 -46 -88 0 -22 -14
-28 -25 -11 -4 6 -15 5 -30 -2 -13 -6 -31 -8 -39 -5 -21 8 -21 61 -1 77 9 7
13 21 10 31 -10 29 4 43 24 25 23 -21 81 -11 81 14 0 37 33 38 38 2z m-2802 3
c4 -8 1 -21 -5 -29 -6 -7 -8 -16 -3 -20 4 -4 -1 -12 -10 -17 -10 -5 -20 -26
-24 -45 -8 -41 4 -54 49 -54 27 0 28 2 22 30 -5 23 -3 30 9 30 18 0 36 -30 36
-59 0 -19 -6 -21 -61 -21 -83 0 -103 12 -94 57 l6 34 -36 -40 c-36 -40 -70
-59 -83 -46 -3 3 7 17 23 30 33 26 32 30 -8 40 -26 7 -27 6 -27 -34 0 -28 -4
-41 -14 -41 -17 0 -28 24 -20 45 7 17 -11 21 -21 5 -7 -12 -45 -14 -45 -2 0 4
12 15 28 24 37 22 84 74 59 65 -43 -16 -67 -19 -67 -8 0 9 87 41 112 41 11 0
10 -38 -2 -45 -5 -3 2 -17 18 -30 32 -27 49 -23 29 8 -20 32 -27 66 -14 74 6
4 24 8 41 10 16 2 32 5 34 8 12 12 63 4 68 -10z m935 -14 c13 -11 20 -23 16
-27 -9 -9 -77 24 -77 38 0 15 37 8 61 -11z m-284 -11 c40 -24 51 -61 29 -94
-16 -25 -52 -43 -64 -32 -3 4 7 19 22 35 24 25 26 31 15 50 -16 24 -42 37 -47
22 -8 -23 -49 -76 -74 -94 -27 -20 -28 -20 -49 -1 -35 32 -42 53 -26 78 35 53
135 72 194 36z m1315 -39 c-3 -50 -2 -52 17 -46 26 8 28 -12 4 -31 -44 -33
-68 1 -57 82 5 43 10 54 23 52 13 -3 15 -14 13 -57z m-905 28 c49 -31 27 -46
-26 -19 -22 12 -41 26 -41 31 0 16 31 10 67 -12z m1083 7 c0 -19 -30 -29 -46
-15 -7 6 -18 8 -24 4 -15 -9 -43 3 -35 15 10 16 105 13 105 -4z m-1808 -37
c11 -15 18 -35 16 -45 -3 -15 -8 -13 -36 16 -17 19 -32 41 -32 48 0 21 31 10
52 -19z m-182 3 c0 -10 6 -27 14 -38 14 -18 15 -18 21 -1 8 20 35 23 35 4 0
-21 -36 -49 -57 -45 -20 3 -58 72 -48 88 10 17 35 11 35 -8z m663 -34 c-23
-40 -59 -53 -48 -16 10 33 47 70 58 59 6 -6 2 -22 -10 -43z m71 13 c16 -30 69
-61 105 -61 25 0 26 8 6 37 -11 16 -12 24 -3 29 13 8 68 -51 68 -73 0 -19
-113 -17 -150 2 -29 15 -70 64 -70 84 0 22 30 10 44 -18z m1264 -50 c4 -13
-94 -16 -102 -2 -9 14 1 17 51 15 26 -1 49 -7 51 -13z m-2211 -231 c3 -13 14
-20 29 -20 28 0 29 -7 9 -34 -20 -27 -19 -36 5 -36 14 0 20 7 20 21 0 11 5 19
12 17 20 -7 32 -34 23 -54 -4 -11 -7 -25 -6 -31 1 -9 -13 -13 -42 -13 -48 0
-57 -9 -57 -57 0 -18 -5 -24 -17 -21 -14 3 -17 12 -15 37 l4 33 -42 -7 c-36
-6 -41 -5 -38 10 2 10 -2 20 -9 22 -7 3 -13 -10 -15 -33 -3 -42 -26 -58 -35
-25 -6 22 -18 27 -28 11 -7 -12 -45 -13 -45 -2 0 5 11 15 24 22 36 19 41 40
11 40 -33 0 -32 18 0 26 25 6 25 7 9 25 -15 17 -15 19 -1 19 9 0 21 -8 26 -17
8 -14 10 -9 11 25 0 31 4 42 15 42 9 0 18 -7 21 -15 6 -14 8 -14 18 0 7 10 16
12 25 6 12 -8 12 -12 2 -25 -10 -12 -10 -16 -2 -16 27 0 51 22 51 45 0 31 29
34 37 5z m1999 5 c10 -8 35 -15 54 -15 83 -1 105 -26 46 -54 -37 -17 -55 -55
-28 -57 10 -1 22 -2 27 -4 6 -1 22 -3 38 -3 52 -3 27 -21 -35 -24 -73 -4 -85
-20 -32 -43 26 -11 34 -19 27 -26 -7 -7 -23 -5 -52 7 -34 13 -47 14 -67 5 -31
-14 -74 -14 -74 -1 0 6 9 10 21 10 19 0 19 1 5 16 -12 12 -26 14 -56 9 -25 -4
-40 -3 -40 4 0 11 62 31 99 31 22 0 23 1 9 13 -9 6 -18 26 -20 42 l-3 30 -22
-22 c-41 -41 -60 -18 -27 32 12 18 22 23 42 19 15 -2 41 0 57 5 24 7 26 9 8
10 -23 1 -37 14 -26 25 10 10 28 7 49 -9z m684 -6 c0 -5 -16 -17 -35 -25 -20
-8 -33 -19 -30 -24 9 -15 22 -12 44 11 11 12 24 18 30 14 18 -11 13 -23 -19
-42 -30 -17 -30 -18 -8 -26 l23 -8 -25 -14 -25 -13 28 -11 c34 -13 37 -36 3
-27 -20 5 -26 1 -35 -25 -12 -34 -38 -35 -33 0 3 21 3 21 -32 4 -38 -17 -64
-9 -32 11 10 6 28 19 40 28 21 18 20 18 -21 12 -58 -9 -56 10 2 25 41 10 63
29 33 28 -31 -1 -48 4 -48 13 0 6 10 11 23 11 l22 2 -22 4 c-36 7 -27 19 22
33 25 7 48 17 51 21 7 13 44 11 44 -2z m120 -4 c0 -20 -42 -59 -81 -75 -34
-14 -54 -3 -25 14 11 6 36 26 55 43 40 36 51 40 51 18z m-2376 -17 c13 -22 1
-35 -19 -18 -12 10 -15 10 -15 -4 0 -12 -5 -16 -18 -11 -26 7 -108 -65 -99
-87 3 -9 23 -19 46 -23 50 -8 54 -25 6 -25 -40 0 -82 17 -89 37 -3 8 1 28 10
45 14 27 14 30 1 25 -36 -13 -85 -18 -91 -9 -7 12 -3 13 107 38 52 12 77 22
77 32 0 8 6 12 15 9 8 -4 17 -2 21 4 8 14 35 7 48 -13z m1893 2 c4 -16 11 -18
30 -13 19 4 24 2 21 -8 -2 -7 -19 -17 -36 -21 -18 -5 -32 -13 -32 -18 0 -16
44 -22 74 -11 33 13 76 14 76 2 0 -5 -21 -14 -46 -20 -34 -9 -44 -16 -40 -27
3 -9 -1 -17 -11 -21 -9 -4 -19 -1 -21 5 -4 13 -22 6 -22 -9 0 -5 25 -9 56 -9
40 0 55 -4 52 -12 -5 -15 -59 -22 -104 -13 -36 6 -49 27 -33 56 9 18 7 19 -15
13 -20 -5 -26 -2 -26 9 0 9 5 19 11 23 8 5 6 10 -5 16 -20 11 -12 28 15 28 14
0 19 7 19 25 0 30 29 35 37 5z m-952 -23 c-1 -24 2 -27 21 -23 27 7 56 -2 48
-15 -3 -5 -20 -9 -38 -9 -28 0 -36 -5 -46 -30 -14 -34 -46 -43 -37 -10 4 16 0
20 -20 20 -21 0 -24 -4 -21 -27 3 -27 5 -28 71 -31 88 -4 78 -22 -12 -22 -70
0 -91 10 -91 42 0 16 -5 18 -35 12 -45 -8 -47 11 -2 27 29 10 33 15 29 40 -6
38 23 40 32 3 5 -18 12 -24 22 -20 9 3 22 6 30 6 9 0 14 12 14 36 0 28 3 35
18 32 11 -2 17 -13 17 -31z m1715 19 c0 -8 -12 -23 -26 -33 l-26 -19 40 -12
c54 -17 69 -35 52 -67 -24 -44 -140 -60 -140 -20 0 24 39 39 67 26 27 -12 43
-7 43 14 0 24 -50 30 -100 12 -24 -9 -48 -13 -53 -8 -5 5 13 26 38 49 29 26
39 38 25 35 -28 -7 -26 15 3 27 35 14 77 12 77 -4z m-2160 -21 c0 -8 -4 -15
-9 -15 -6 0 -18 -13 -28 -30 -9 -16 -25 -30 -35 -30 -20 0 -24 15 -8 25 6 4 8
15 5 24 -3 12 2 21 17 29 33 15 58 14 58 -3z m148 -1 c26 -18 29 -34 5 -34
-25 1 -56 26 -48 39 8 15 17 14 43 -5z m494 -41 c-3 -48 -2 -51 17 -46 26 7
28 -14 4 -33 -44 -33 -68 2 -58 83 5 43 10 53 23 51 14 -3 16 -13 14 -55z
m183 38 c10 -17 -34 -34 -50 -21 -8 7 -19 9 -25 5 -15 -9 -43 3 -35 15 8 13
102 13 110 1z m1075 -20 c0 -21 -48 -55 -92 -66 -43 -11 -34 12 15 36 23 12
46 28 50 35 12 20 27 17 27 -5z m-2100 -21 c12 -17 20 -38 18 -48 -3 -14 -10
-11 -36 18 -18 19 -32 40 -32 47 0 23 28 14 50 -17z m-176 -15 c7 -36 22 -46
32 -20 7 18 34 20 34 3 0 -18 -31 -48 -50 -48 -24 0 -49 30 -56 68 -6 28 -4
32 14 32 15 0 21 -9 26 -35z m478 -9 c-3 -25 2 -44 13 -56 15 -17 13 -18 -48
-19 -47 0 -66 3 -70 13 -8 20 17 38 45 34 18 -2 24 2 26 22 5 40 11 52 25 47
7 -2 11 -18 9 -41z m1818 -21 c0 -27 -132 -97 -151 -78 -5 5 14 19 52 37 33
15 63 34 66 42 7 19 33 18 33 -1z m-1092 -24 c2 -7 -16 -11 -52 -11 -50 0 -66
7 -51 21 9 10 99 1 103 -10z m606 -226 c3 -8 16 -15 30 -15 14 0 27 -4 30 -9
7 -11 -17 -21 -49 -21 -30 0 -41 -16 -17 -25 27 -10 -3 -22 -78 -30 -54 -6
-63 -5 -52 6 21 23 13 32 -23 26 -47 -8 -54 9 -9 23 24 8 34 17 30 26 -3 9 2
14 14 14 11 0 20 -4 20 -10 0 -5 16 -10 35 -10 28 0 35 4 35 20 0 23 25 27 34
5z m-838 -10 c18 -14 17 -14 -13 -15 -31 0 -49 11 -36 24 10 10 28 7 49 -9z
m-1598 -23 c2 -14 13 -23 33 -27 36 -8 63 -46 54 -74 -9 -29 -61 -63 -88 -59
-22 4 -22 4 4 17 15 7 33 24 40 38 12 23 11 27 -10 44 -13 10 -28 19 -35 19
-16 0 -56 -62 -56 -88 0 -23 -14 -30 -25 -12 -4 7 -12 7 -25 0 -30 -16 -50
-12 -62 15 -10 21 -8 29 10 48 14 15 19 30 15 45 -6 24 14 31 33 12 16 -16 74
0 74 20 0 36 33 39 38 2z m436 6 c15 -25 -1 -34 -23 -14 -19 17 -19 17 -14 -4
5 -19 3 -21 -14 -16 -22 7 -103 -56 -103 -80 0 -8 18 -18 45 -25 25 -6 42 -15
39 -20 -13 -21 -108 1 -118 27 -3 9 1 29 10 46 14 27 14 30 1 25 -36 -13 -85
-18 -91 -9 -7 12 -3 13 107 38 52 12 77 22 77 32 0 8 6 12 15 9 8 -4 17 -2 21
4 8 14 35 7 48 -13z m176 -8 c0 -5 8 -10 18 -12 13 -3 10 -7 -13 -19 -22 -10
-36 -30 -52 -69 -12 -30 -26 -56 -31 -58 -19 -6 -22 16 -8 56 8 22 12 50 9 61
-4 16 -1 21 15 21 12 0 23 9 27 19 6 19 35 19 35 1z m408 -5 c-3 -13 -2 -22 2
-20 15 9 72 -8 78 -23 8 -22 -35 -52 -75 -52 -40 0 -42 23 -2 28 30 4 50 22
25 22 -27 0 -106 -22 -106 -29 0 -4 16 -22 35 -41 39 -37 43 -50 18 -50 -9 0
-33 18 -54 41 -37 40 -37 40 -68 25 -16 -9 -35 -16 -41 -16 -20 0 -9 20 20 35
25 13 29 19 23 45 -4 23 -2 30 10 30 9 0 19 -9 22 -20 7 -23 35 -27 35 -5 0 8
6 15 13 15 8 0 22 9 32 20 25 27 38 25 33 -5z m769 9 c4 -11 -1 -22 -12 -30
-10 -8 -13 -14 -7 -14 20 0 14 -17 -8 -23 -16 -4 -20 -14 -20 -45 0 -42 11
-52 57 -52 22 0 24 3 18 30 -5 24 -3 30 9 30 18 0 40 -46 32 -67 -7 -18 -116
-18 -141 0 -12 10 -16 22 -13 40 5 26 4 26 -38 -13 -36 -33 -51 -40 -84 -40
-38 0 -40 1 -40 32 0 25 -3 29 -12 20 -14 -14 -48 -16 -48 -3 0 5 15 19 33 30
18 11 42 30 53 42 18 21 18 22 1 16 -41 -15 -67 -19 -67 -9 0 5 12 14 28 20
72 27 104 22 84 -15 -8 -13 -4 -21 14 -36 30 -23 22 -40 -11 -25 -31 14 -37 8
-33 -32 l3 -31 42 36 43 36 -22 38 c-23 39 -19 77 6 68 8 -3 27 -2 43 3 47 14
83 11 90 -6z m-398 -18 c57 -30 59 -100 3 -125 -35 -17 -50 2 -18 23 29 19 33
47 10 70 -22 23 -41 20 -48 -7 -6 -25 -68 -97 -84 -97 -20 0 -62 43 -62 64 0
22 27 53 65 74 28 16 101 15 134 -2z m726 -42 c22 -24 34 -64 19 -64 -10 0
-64 65 -64 77 0 21 19 15 45 -13z m-175 -2 c0 -10 6 -27 14 -38 14 -18 15 -18
21 -1 8 19 35 24 35 5 0 -18 -31 -48 -51 -48 -21 0 -44 31 -54 73 -6 23 -4 27
14 27 14 0 21 -6 21 -18z m-1210 -1 c0 -7 -81 -31 -105 -31 -15 0 -1 22 18 30
29 12 87 12 87 1z m1774 -17 c33 -12 14 -21 -54 -26 -38 -3 -77 -11 -85 -18
-22 -18 -12 -23 18 -9 23 10 32 9 67 -15 39 -25 52 -46 29 -46 -6 0 -24 10
-41 21 l-29 21 -56 -21 c-30 -11 -59 -21 -64 -21 -16 0 -10 23 12 47 l22 22
-52 -6 c-89 -10 -57 14 42 31 164 28 169 28 191 20z m-1766 -59 c29 -10 8 -25
-34 -25 -47 0 -88 15 -79 29 4 8 83 5 113 -4z"/>
<path d="M545 1450 l-450 -450 453 -453 452 -452 452 452 453 453 -450 450
c-247 247 -452 450 -455 450 -3 0 -208 -203 -455 -450z m890 -20 l430 -430
-433 -433 -432 -432 -432 432 -433 433 430 430 c236 236 432 430 435 430 3 0
199 -194 435 -430z"/>
<path d="M850 1596 c-83 -24 -145 -60 -207 -121 -48 -48 -65 -73 -77 -115 -9
-29 -16 -63 -16 -75 0 -14 -19 -34 -59 -63 -107 -75 -170 -175 -171 -267 0
-157 197 -333 445 -396 245 -62 524 -19 720 112 157 105 224 239 181 361 -21
59 -84 135 -151 183 -58 42 -63 48 -69 92 -17 129 -140 246 -303 288 -69 18
-230 18 -293 1z m245 -17 c132 -24 257 -109 301 -204 28 -60 30 -97 5 -150
-52 -114 -208 -185 -406 -185 -148 0 -255 34 -334 106 -107 96 -108 195 -1
308 101 107 270 156 435 125z m-525 -363 c0 -28 91 -115 153 -146 179 -88 438
-77 595 26 46 30 104 94 115 127 11 33 154 -90 191 -165 86 -173 -59 -361
-354 -460 -92 -31 -101 -32 -265 -33 -195 0 -241 9 -390 80 -165 79 -267 200
-267 314 1 81 56 167 152 237 49 36 70 42 70 20z"/>
<path d="M3969 1439 c-23 -5 -23 -6 8 -22 35 -19 83 -9 83 16 0 14 -46 17 -91
6z"/>
<path d="M5047 1429 c-14 -8 -16 -14 -6 -25 13 -16 24 -11 39 17 12 22 -3 26
-33 8z"/>
<path d="M5004 1387 c-8 -21 2 -35 16 -21 5 5 6 15 0 24 -8 12 -10 12 -16 -3z"/>
<path d="M2238 1463 c-20 -5 -25 -33 -5 -33 6 0 26 9 42 20 30 20 30 20 5 19
-14 -1 -33 -3 -42 -6z"/>
<path d="M2862 1440 c-40 -24 -50 -47 -30 -66 13 -13 18 -11 42 21 15 19 26
42 24 50 -2 13 -9 12 -36 -5z"/>
<path d="M2257 1053 c-14 -17 -13 -20 11 -37 27 -19 27 -19 10 0 -12 14 -14
24 -7 37 13 22 6 22 -14 0z"/>
<path d="M2178 1036 c-10 -7 -18 -16 -18 -20 0 -12 17 -6 40 14 26 23 6 28
-22 6z"/>
<path d="M2208 1003 c-19 -5 -25 -23 -9 -23 17 0 41 12 41 21 0 9 -4 10 -32 2z"/>
<path d="M4248 953 c7 -3 16 -2 19 1 4 3 -2 6 -13 5 -11 0 -14 -3 -6 -6z"/>
<path d="M5298 943 c7 -3 16 -2 19 1 4 3 -2 6 -13 5 -11 0 -14 -3 -6 -6z"/>
<path d="M4547 683 c-11 -10 -8 -23 4 -23 6 0 17 7 25 15 14 13 13 15 -4 15
-10 0 -22 -3 -25 -7z"/>
<path d="M2107 649 c-14 -8 -16 -14 -6 -25 13 -16 24 -11 39 17 12 22 -3 26
-33 8z"/>
<path d="M2064 607 c-8 -21 -3 -29 13 -19 8 5 9 13 3 22 -7 12 -10 12 -16 -3z"/>
<path d="M3908 688 c-34 -9 -54 -38 -27 -38 15 0 69 33 69 42 0 4 -1 8 -2 7
-2 -1 -20 -6 -40 -11z"/>
<path d="M3473 665 c-40 -17 -56 -44 -39 -67 12 -16 14 -16 33 5 22 24 47 67
41 72 -2 2 -17 -3 -35 -10z"/>
</g>
</svg>
